<svg width="89" height="108" viewBox="0 0 89 108" fill="none" xmlns="http://www.w3.org/2000/svg">
<path fill-rule="evenodd" clip-rule="evenodd" d="M81.9118 21.5995L44.5004 3.05176e-05L7.08398 21.6024L28.1602 33.7708L44.4975 24.3385L60.8327 33.7696L81.9118 21.5995Z" fill="#00B264"/>
<path d="M0.484863 25.4137L44.4988 50.8251L88.5126 25.4137L87.6811 51.0458L44.4957 75.9789L1.42268 51.1107L0.484863 25.4137Z" fill="#004CFC"/>
<path d="M1.7071 58.904L2.06124 68.6079C2.33177 76.0206 2.46703 79.7269 4.2916 82.7611C6.11618 85.7953 9.32647 87.6525 15.7471 91.3669L44.4988 108L73.3676 91.3929C79.8446 87.6669 83.0831 85.8039 84.9175 82.7479C86.7519 79.6919 86.873 75.9577 87.1153 68.4894L87.4289 58.8218L44.4993 83.61L1.7071 58.904Z" fill="#004CFC"/>
<path fill-rule="evenodd" clip-rule="evenodd" d="M44.499 107.997L44.5018 107.998L73.3707 91.3914C79.8477 87.6654 83.0862 85.8024 84.9206 82.7464C86.7549 79.6904 86.8761 75.9562 87.1184 68.488V68.4879L87.432 58.8203L44.5024 83.6085L44.499 83.6066V107.997ZM44.499 75.9773L87.6842 51.0442L88.5157 25.4122L44.5018 50.8236L44.499 50.822V75.9773Z" fill="#0444D9"/>
<path fill-rule="evenodd" clip-rule="evenodd" d="M44.502 24.3409L60.83 33.7679L81.9092 21.5978L44.502 0.000732422V24.3409Z" fill="#00C76F"/>
</svg>
