<svg width="111" height="16" viewBox="0 0 111 16" fill="none" xmlns="http://www.w3.org/2000/svg">
<path opacity="0.9" d="M12.7948 12.2107H5.91553V13.4729H12.7948V12.2107Z" fill="black"/>
<path opacity="0.9" fill-rule="evenodd" clip-rule="evenodd" d="M14.9756 6.04732H13.2814C14.0867 7.18991 14.9468 7.71789 15.2881 7.92722V9.22656C15.2881 9.29255 15.2365 9.36164 15.0313 9.24512C14.491 8.93885 13.896 8.53255 13.3102 7.98807L13.2587 10.1959H14.8261V15.6634H10.8229L10.4775 14.5291C10.4455 14.4424 10.4929 14.4022 10.5538 14.4022H13.4381V11.3313H7.03735C6.99197 11.3313 6.96001 11.2993 6.96001 11.255L7.07963 9.10281H8.26656C8.31193 9.10281 8.3439 9.13478 8.3439 9.17912L8.28718 10.1959H11.9975L12.0367 8.49542H7.33743C6.93423 8.79345 6.53515 9.03372 6.16185 9.24512C5.95664 9.36164 5.90507 9.29152 5.90507 9.22656V7.92722L5.90757 7.9257C6.25262 7.71432 7.11147 7.18818 7.91491 6.04732H5.91745V4.91195H8.57695C8.75638 4.51906 8.92447 4.09729 9.03894 3.73843H6.22681V2.60307H7.43024C7.33728 2.28653 7.23698 1.94443 7.15353 1.65978C7.05184 1.31292 6.97516 1.05136 6.96723 1.02531C6.94248 0.941779 6.98682 0.90878 7.04147 0.90878H8.116L8.61407 2.60307H9.35861C9.52567 1.90493 9.65663 1.1573 9.78141 0.290052H11.0044C11.0673 0.290052 11.1189 0.308613 11.1055 0.403485C10.9931 1.21918 10.8693 1.94618 10.7281 2.60307H12.247L12.7451 0.90878H13.8196C13.8743 0.90878 13.9186 0.941779 13.8939 1.02531C13.8886 1.04304 13.8528 1.16507 13.7995 1.34706C13.707 1.66259 13.5617 2.15834 13.4309 2.60307H14.6673V3.73843H10.4455C10.3228 4.1602 10.1887 4.54897 10.0402 4.91195H14.9756V6.04732ZM12.7008 7.35903C12.3656 6.97851 12.0398 6.54437 11.7376 6.04732H9.49061C9.20187 6.55777 8.89147 6.98882 8.57076 7.35903H12.7008ZM0.660423 15.4552C1.04197 13.9125 1.22759 12.1708 1.22759 9.87632V0.933627H5.51641V15.6656H3.27043L2.92497 14.5312C2.893 14.4446 2.94044 14.4044 3.00128 14.4044H4.2573V10.4816H2.48877C2.48155 11.7583 2.42689 13.5165 2.0041 15.6367H0.738795C0.663517 15.6367 0.620206 15.5985 0.660423 15.4552ZM2.4898 6.32688V9.34628H4.2573V6.32688H2.4898ZM4.25627 5.19048V2.1948H2.4898V5.19048H4.25627Z" fill="black"/>
<path opacity="0.9" fill-rule="evenodd" clip-rule="evenodd" d="M20.2312 3.66195H18.7143C18.7143 3.66195 16.8302 0.784863 16.7993 0.736396C16.7673 0.687929 16.8086 0.621932 16.8663 0.621932H18.3832C18.3832 0.621932 20.2683 3.50108 20.2962 3.54336C20.3261 3.58874 20.2982 3.66195 20.2312 3.66195ZM30.0895 0.901397H21.3696V2.1636H23.995V6.76385H20.987V8.02606H23.995V15.7406H25.383V8.02503H28.7015V15.5776H31.3228V14.3154H30.0895V0.901397ZM25.383 6.76282V2.16257H28.7015V6.76282H25.383ZM22.2493 11.3342C22.2256 11.3517 21.049 12.2437 19.9095 13.1079V4.90459H16.6663V6.29261H18.5308V14.1515C18.0863 14.4877 17.7852 14.7166 17.7852 14.7166L18.5462 15.7231L22.3741 12.8223V11.393C22.3751 11.3249 22.2998 11.2961 22.2493 11.3342Z" fill="black"/>
<path opacity="0.9" fill-rule="evenodd" clip-rule="evenodd" d="M33.957 1.23756H44.9106V2.62558H33.957V1.23756ZM46.4535 7.87139H37.9305L35.5855 14.0422H43.6145C43.6145 14.0422 42.3554 10.7289 42.3369 10.6784C42.3173 10.6289 42.3513 10.5732 42.409 10.5732H43.9167C43.9167 10.5732 45.71 15.2869 45.7223 15.3199C45.7419 15.3735 45.7089 15.4302 45.6522 15.4302H33.5437C33.4911 15.4302 33.4509 15.3848 33.4725 15.3229C33.4859 15.2849 35.4971 10.0042 36.3046 7.88391L36.3094 7.87139H32.4145V6.48337H46.4535V7.87139Z" fill="black"/>
<path opacity="0.9" fill-rule="evenodd" clip-rule="evenodd" d="M102.924 1.33883L106.169 1.33883L107.613 1.33883H107.613V2.73097H107.613V5.20591H109.675V6.59805H107.613V9.58855H106.169V6.59805H99.2459C99.1894 6.86004 99.1257 7.10576 99.0542 7.33856C98.7777 8.23831 98.3903 8.92489 97.9027 9.58855H96.2321C96.1619 9.58855 96.1239 9.50611 96.169 9.45224C96.9144 8.561 97.3713 7.90018 97.6742 6.91449C97.7053 6.81301 97.735 6.70772 97.7631 6.59805H95.7539V5.20591H98.0106C98.1238 4.24123 98.1773 3.0047 98.1773 1.33883H98.6415H99.621H101.377L102.045 0.307622L103.44 0.307622C103.505 0.307622 103.544 0.380045 103.509 0.434936L102.924 1.33883ZM99.6068 2.73097C99.5856 3.68398 99.5397 4.49713 99.4633 5.20591H106.169V2.73097H99.6068ZM102.766 3.09193L103.818 4.71768C103.854 4.77257 103.814 4.84499 103.749 4.84499H102.354L101.302 3.21924C101.266 3.16435 101.306 3.09193 101.371 3.09193H102.766ZM104.129 9.10079L102.766 6.95891H101.37C101.305 6.95891 101.265 7.03078 101.3 7.0857L102.663 9.22758H104.06C104.125 9.22758 104.164 9.15571 104.129 9.10079ZM108.644 9.89792H96.682V11.2901H96.6823L96.6823 14.0227L98.126 14.0227L98.126 11.2901H100.188L100.188 14.0227L101.632 14.0227V11.2901H103.694V14.0227L105.138 14.0227V11.2901H107.201V14.0227L108.644 14.0227V10.7228H108.644V9.89792ZM95.0321 14.0228H110.191V15.4149H95.0321V14.0228Z" fill="black"/>
<path opacity="0.9" fill-rule="evenodd" clip-rule="evenodd" d="M54.9277 0.270796C54.9277 0.270796 54.9459 0.257446 54.9738 0.257446C55.0017 0.257446 55.0199 0.270796 55.0199 0.270796C57.0478 1.71863 59.3913 3.249 62.2627 4.87888V6.45779C62.2627 6.50027 62.2118 6.56216 62.1389 6.52332C59.3452 4.9432 57.344 3.72352 54.9738 2.11427C52.6036 3.72352 50.6023 4.9432 47.8098 6.52332C47.7358 6.56216 47.686 6.50027 47.686 6.45779V4.87888C50.5574 3.249 52.8997 1.71863 54.9277 0.270796ZM55.9737 8.1846V4.05454H54.5447V14.0234H51.4013L51.4013 7.47005H49.9723L49.9723 14.0234H48.2713V15.4152H61.4038V14.0234H55.9737V9.57641H60.8325V8.1846H55.9737Z" fill="black"/>
<path opacity="0.9" fill-rule="evenodd" clip-rule="evenodd" d="M69.6603 0.611075L69.6603 14.0434H68.2313L68.2313 0.611075L69.6603 0.611075ZM63.5156 14.0434H78.3769V15.4352H63.5156V14.0434ZM73.6612 14.0434L73.6613 0.611075L72.2323 0.611075V14.0434H73.6612ZM65.2303 3.75486L67.2756 11.9363C67.2892 11.9905 67.2482 12.0429 67.1924 12.0429H65.7304L63.685 3.8614C63.6715 3.80728 63.7124 3.75486 63.7682 3.75486H65.2303ZM74.6168 11.9363L76.6622 3.75486H78.1242C78.18 3.75486 78.2209 3.80728 78.2074 3.8614L76.162 12.0429H74.7C74.6442 12.0429 74.6033 11.9905 74.6168 11.9363Z" fill="black"/>
<path opacity="0.9" fill-rule="evenodd" clip-rule="evenodd" d="M93.6847 0.611075L93.6847 15.4723H93.5418V15.4724H90.2551L89.8584 14.1501C89.8425 14.0969 89.8823 14.0434 89.9378 14.0434H92.2557V2.0029H81.3817L81.3817 15.4723H79.9528L79.9528 2.0029H79.9526V0.611084H79.9528V0.611075L81.3817 0.611075V0.611084H92.2557V0.611075L93.6847 0.611075ZM85.6535 11.2761L85.1186 10.1662C84.7407 11.0354 84.2518 11.8207 83.6528 12.7202C83.6374 12.7433 83.6114 12.7573 83.5837 12.7573H82.0615C81.9951 12.7573 81.9557 12.6832 81.9929 12.6282L82.1129 12.451C82.901 11.2876 83.6987 10.1103 84.1203 8.75788C84.1622 8.62336 84.2018 8.48477 84.2391 8.34108L82.2812 4.27816C82.2547 4.22313 82.2948 4.1593 82.3559 4.1593L83.6529 4.15929L84.5988 6.1222C84.676 5.27702 84.7196 4.27301 84.7343 3.04032H86.1634C86.1359 5.42468 86.0017 7.06987 85.6959 8.39873L87.0252 11.1572C87.0517 11.2122 87.0116 11.2761 86.9505 11.2761H85.6535ZM86.8528 4.27816L88.9117 8.55062C88.8917 8.62083 88.8711 8.68988 88.8499 8.75788C88.4282 10.1103 87.6306 11.2876 86.8424 12.451L86.7225 12.6282C86.6853 12.6832 86.7247 12.7573 86.7911 12.7573H88.3576C88.9284 11.9015 89.4001 11.1508 89.7723 10.3365L90.225 11.2761H91.5221C91.5832 11.2761 91.6232 11.2122 91.5967 11.1572L90.3728 8.61743C90.716 7.25045 90.864 5.55719 90.893 3.04032H89.4638C89.4476 4.40827 89.3956 5.49461 89.3018 6.39478L88.2245 4.15929L86.9275 4.1593C86.8664 4.1593 86.8263 4.22313 86.8528 4.27816Z" fill="black"/>
</svg>
